<?xml version="1.0" standalone="no"?>
<!DOCTYPE svg PUBLIC "-//W3C//DTD SVG 20010904//EN"
 "http://www.w3.org/TR/2001/REC-SVG-20010904/DTD/svg10.dtd">
<svg version="1.0" xmlns="http://www.w3.org/2000/svg"
 width="2630.000000pt" height="931.000000pt" viewBox="0 0 2630.000000 931.000000"
 preserveAspectRatio="xMidYMid meet">

<g transform="translate(0.000000,931.000000) scale(0.100000,-0.100000)"
fill="#000000" stroke="none">
<path d="M4405 8039 c-153 -20 -349 -88 -472 -166 -149 -93 -236 -193 -318
-366 -68 -142 -87 -225 -92 -404 -11 -332 73 -570 271 -769 143 -142 317 -231
826 -421 205 -76 344 -144 417 -203 69 -55 168 -187 187 -249 50 -169 17 -322
-97 -447 -55 -61 -218 -148 -307 -165 -168 -31 -401 -18 -550 31 -221 73 -359
195 -446 395 -17 39 -34 64 -42 62 -9 -1 -25 30 -47 91 -171 475 -470 750
-917 841 -139 29 -288 40 -648 51 -209 6 -355 15 -410 25 -386 71 -547 296
-576 808 l-7 117 -56 0 -56 0 7 -142 c9 -203 46 -366 122 -538 4 -11 -8 -20
-49 -37 l-55 -21 -25 30 c-56 66 -96 171 -145 383 -44 190 -51 215 -65 215
-16 0 -78 -21 -88 -30 -11 -10 75 -371 112 -466 26 -67 64 -135 105 -190 6 -8
-3 -24 -30 -50 -22 -22 -54 -56 -72 -77 -18 -21 -37 -35 -43 -31 -25 15 -90
130 -113 202 -14 42 -42 145 -61 227 -45 194 -45 195 -60 195 -16 0 -78 -21
-88 -30 -10 -9 74 -367 107 -455 34 -88 68 -147 117 -200 l39 -42 -44 -79
c-72 -128 -66 -123 -115 -91 -82 54 -140 175 -192 397 -48 208 -61 250 -74
250 -16 0 -78 -21 -88 -30 -10 -9 74 -367 107 -455 49 -129 119 -222 204 -272
32 -19 41 -30 36 -42 -4 -9 -23 -62 -43 -119 l-37 -102 -45 28 c-103 66 -201
208 -262 377 -35 99 -73 275 -93 439 l-18 138 -53 -4 c-29 -3 -55 -7 -57 -9
-5 -6 12 -152 35 -287 54 -322 162 -565 311 -697 61 -53 165 -107 253 -131 90
-25 343 -29 565 -11 315 27 362 28 493 17 300 -26 521 -126 722 -326 169 -169
331 -427 455 -727 81 -196 212 -312 435 -385 537 -178 1503 9 2017 390 113 84
300 269 353 348 73 111 134 268 155 404 21 125 8 388 -24 511 -56 217 -187
419 -340 527 -169 119 -292 175 -645 292 -386 129 -462 168 -583 294 -67 70
-79 89 -98 149 -25 81 -28 205 -6 277 20 66 77 150 127 186 77 55 141 73 285
78 197 6 388 -25 507 -84 76 -37 157 -122 220 -234 41 -72 65 -102 100 -126
108 -75 250 -43 332 74 28 40 30 52 33 141 3 84 0 108 -23 177 -34 102 -70
158 -153 236 -173 163 -399 259 -711 302 -120 17 -303 19 -416 5z m-2399
-1832 l210 -11 -75 -76 c-114 -113 -200 -252 -261 -418 -15 -40 -28 -74 -31
-74 -2 -1 -51 5 -109 12 -70 9 -168 11 -297 7 l-191 -5 14 49 c67 224 205 426
338 493 51 26 148 47 176 39 8 -2 110 -9 226 -16z m1415 -433 c62 -79 131
-200 174 -304 19 -47 35 -90 35 -95 0 -6 -32 -18 -71 -28 -242 -56 -526 -296
-665 -561 l-36 -68 -54 101 c-64 123 -141 241 -229 350 l-66 81 25 47 c84 167
304 367 521 476 65 32 151 61 250 84 45 10 40 14 116 -83z"/>
<path d="M14910 5765 l0 -1365 195 0 195 0 0 1365 0 1365 -195 0 -195 0 0
-1365z"/>
<path d="M21133 6921 c-85 -22 -107 -67 -102 -204 4 -74 7 -89 28 -111 35 -37
90 -49 208 -44 152 7 184 38 182 180 -1 148 -32 179 -188 184 -53 2 -111 -1
-128 -5z"/>
<path d="M8227 6815 l-59 -65 173 -180 173 -180 107 0 106 0 167 176 c91 97
166 181 166 187 -1 7 -25 38 -55 70 -38 42 -58 56 -67 50 -8 -4 -81 -66 -162
-138 -81 -71 -151 -131 -155 -133 -4 -1 -78 61 -164 138 -87 77 -161 140 -165
140 -4 -1 -33 -30 -65 -65z"/>
<path d="M10040 6719 c-69 -10 -144 -21 -167 -24 l-43 -6 0 -230 0 -229 -125
0 -125 0 0 -135 0 -135 125 0 125 0 0 -562 c1 -430 4 -581 14 -638 36 -197
120 -307 273 -359 125 -42 310 -36 419 13 65 30 146 113 184 189 16 33 30 66
30 73 0 7 -27 35 -59 62 l-60 50 -44 -42 c-54 -52 -113 -71 -199 -63 -97 9
-143 54 -159 157 -5 39 -8 278 -7 590 l3 525 213 3 212 2 0 135 0 135 -215 0
-215 0 0 255 0 255 -27 -1 c-16 -1 -84 -10 -153 -20z"/>
<path d="M8515 6249 c-305 -34 -516 -206 -604 -493 -36 -118 -51 -240 -51
-423 0 -267 27 -410 106 -573 38 -78 62 -110 128 -176 122 -122 249 -178 466
-205 107 -13 234 -6 324 17 161 42 324 168 398 309 41 79 81 176 75 182 -5 5
-218 62 -233 63 -7 0 -24 -25 -38 -55 -68 -138 -203 -215 -376 -215 -182 0
-329 89 -401 244 -31 67 -53 158 -64 269 l-7 67 566 0 c402 0 567 3 572 11 3
6 9 59 12 118 12 274 -62 511 -210 667 -119 125 -268 186 -488 197 -52 3 -131
1 -175 -4z m249 -305 c133 -47 221 -186 242 -381 l7 -63 -382 0 -381 0 0 43
c1 154 94 323 212 383 85 43 208 51 302 18z"/>
<path d="M11651 6249 c-401 -44 -606 -254 -662 -677 -16 -120 -6 -493 16 -592
61 -277 167 -432 357 -524 139 -67 217 -81 433 -80 205 1 282 16 415 81 105
51 221 168 273 276 76 156 107 331 107 597 0 325 -62 552 -190 702 -85 98
-245 180 -405 207 -94 16 -252 20 -344 10z m276 -325 c177 -60 254 -215 269
-544 19 -384 -82 -628 -283 -686 -84 -24 -221 -16 -295 18 -177 82 -260 321
-245 703 10 261 71 404 206 483 89 52 237 63 348 26z"/>
<path d="M13760 6250 c-156 -22 -311 -94 -380 -178 l-30 -37 0 98 0 97 -185 0
-185 0 0 -1380 0 -1380 198 2 197 3 3 548 2 548 50 -49 c105 -104 227 -146
420 -146 201 1 325 46 437 160 144 147 213 394 213 766 0 335 -64 580 -195
746 -122 157 -325 232 -545 202z m107 -340 c140 -69 211 -214 235 -482 20
-228 -13 -458 -86 -582 -35 -61 -107 -121 -169 -143 -38 -13 -80 -18 -157 -17
-119 0 -180 19 -262 79 l-48 35 0 514 0 514 33 24 c130 100 319 124 454 58z"/>
<path d="M16342 6250 c-202 -21 -371 -90 -476 -193 -74 -73 -106 -134 -106
-201 0 -96 79 -163 181 -154 61 6 90 26 147 102 80 104 178 146 339 147 202 0
263 -76 263 -329 l0 -124 -42 5 c-108 15 -252 18 -353 8 -401 -40 -595 -231
-595 -585 1 -346 174 -531 515 -552 182 -11 365 49 470 155 l49 49 27 -47 c32
-55 87 -107 138 -129 45 -20 181 -21 236 -3 54 19 107 55 134 92 l23 31 -23
68 c-20 59 -25 67 -40 59 -41 -21 -109 -6 -125 28 -5 10 -11 266 -15 568 -5
470 -8 559 -23 614 -55 211 -181 335 -382 375 -93 19 -241 26 -342 16z m341
-966 c16 -5 17 -26 17 -249 l0 -243 -37 -32 c-68 -60 -136 -84 -245 -88 -159
-6 -252 41 -304 153 -29 61 -33 192 -8 274 30 101 131 170 279 191 58 8 262 4
298 -6z"/>
<path d="M19903 6250 c-253 -27 -449 -131 -559 -297 -90 -135 -133 -307 -141
-563 -15 -482 117 -798 388 -928 235 -113 538 -122 748 -21 146 69 280 227
333 391 12 37 19 70 16 73 -3 3 -57 20 -121 39 l-116 33 -18 -45 c-25 -67 -94
-154 -149 -190 -101 -64 -280 -80 -397 -36 -196 75 -289 275 -290 619 0 188
17 283 69 392 61 127 158 202 293 225 154 26 325 -45 396 -166 68 -117 175
-144 271 -71 63 48 77 108 48 205 -13 45 -29 68 -93 130 -117 116 -271 185
-466 209 -98 12 -105 12 -212 1z"/>
<path d="M6072 6218 c3 -7 137 -419 299 -915 l294 -903 210 0 210 0 289 903
c159 496 291 908 293 915 4 10 -33 12 -177 10 l-182 -3 -207 -692 c-113 -381
-209 -689 -212 -685 -3 4 -98 316 -210 694 l-204 688 -204 0 c-158 0 -202 -3
-199 -12z"/>
<path d="M17422 6218 c3 -7 137 -419 299 -915 l294 -903 210 0 210 0 289 902
c158 496 291 908 293 915 4 11 -30 13 -177 11 l-182 -3 -207 -692 c-113 -381
-209 -689 -212 -685 -3 4 -98 316 -210 694 l-204 688 -204 0 c-158 0 -202 -3
-199 -12z"/>
<path d="M21040 5315 l0 -915 200 0 200 0 0 915 0 915 -200 0 -200 0 0 -915z"/>
</g>
</svg>
